<svg id="Group_9" data-name="Group 9" xmlns="http://www.w3.org/2000/svg" width="301.327" height="617.744" viewBox="0 0 301.327 617.744">
  <g id="Group_6" data-name="Group 6" transform="translate(0)">
    <path id="Path_13" data-name="Path 13" d="M1401.936,1364.323h0a354.283,354.283,0,0,1-181.842,0h0c-18.18-4.827-30.836-58.741-30.836-77.551V857.129c0-25.477,15.518-73.356,39.177-82.8h0a222.654,222.654,0,0,1,165.161,0h0c23.659,9.448,39.177,57.327,39.177,82.8v429.643C1432.774,1305.582,1420.117,1359.5,1401.936,1364.323Z" transform="translate(-1160.352 -758.445)" fill="#e1dee5"/>
    <path id="Path_14" data-name="Path 14" d="M1397.975,1351.22h0a337.981,337.981,0,0,1-173.48,0h0c-17.344-4.6-29.418-56.04-29.418-73.984V867.35c0-24.3,14.8-69.982,37.375-79h0a212.414,212.414,0,0,1,157.566,0h0c22.572,9.015,37.375,54.692,37.375,79v409.886C1427.393,1295.181,1415.318,1346.616,1397.975,1351.22Z" transform="translate(-1160.572 -759)" fill="#fafbfb"/>
    <path id="Path_15" data-name="Path 15" d="M1190.853,948.624l-24.823,14.044a13.41,13.41,0,0,0-6.807,11.673h0a2.928,2.928,0,0,0,3.7,2.826l27.933-7.607Z" transform="translate(-1159.222 -765.601)" fill="#e1dee5"/>
    <path id="Path_16" data-name="Path 16" d="M1439.463,948.624l24.824,14.044a13.41,13.41,0,0,1,6.807,11.673h0a2.929,2.929,0,0,1-3.7,2.826l-27.933-7.607Z" transform="translate(-1169.767 -765.601)" fill="#e1dee5"/>
  </g>
  <g id="Group_7" data-name="Group 7" transform="translate(42.485 28.166)">
    <path id="Path_17" data-name="Path 17" d="M1203.37,1123q0,1.135,0,2.273c0,60.036,3.745,119.969,3.745,119.969s14.984-43.7,14.984-59.933v-58.785C1215.906,1125.054,1209.651,1123.854,1203.37,1123Z" transform="translate(-1203.368 -800.329)" fill="#45484a"/>
    <path id="Path_18" data-name="Path 18" d="M1222.1,1114.986v-54.767c0-9.364-14.983-59.516-14.983-59.516s-3.291,52.681-3.7,108.738C1209.728,1110.984,1215.937,1112.9,1222.1,1114.986Z" transform="translate(-1203.37 -795.727)" fill="#45484a"/>
    <path id="Path_19" data-name="Path 19" d="M1427.45,1123q0,1.135,0,2.273c0,60.036-3.746,119.969-3.746,119.969s-14.983-43.7-14.983-59.933v-58.785C1414.915,1125.054,1421.172,1123.854,1427.45,1123Z" transform="translate(-1211.096 -800.329)" fill="#45484a"/>
    <path id="Path_20" data-name="Path 20" d="M1408.723,1114.986v-54.767c0-9.364,14.983-59.516,14.983-59.516s3.292,52.681,3.7,108.738C1421.1,1110.984,1414.887,1112.9,1408.723,1114.986Z" transform="translate(-1211.096 -795.727)" fill="#45484a"/>
    <path id="Path_21" data-name="Path 21" d="M1229.087,1040.993l-22.474-86.777s23.723-33.088,105.056-33.088,105.057,33.088,105.057,33.088l-22.475,86.777s-45.3-10.613-82.583-10.613S1229.087,1040.993,1229.087,1040.993Z" transform="translate(-1203.49 -792.732)" fill="#45484a"/>
    <path id="Path_22" data-name="Path 22" d="M1395.266,1250.9a5.954,5.954,0,0,0-7.292-5.6c-13.619,3.145-48.377,9.53-75.544,9.53s-61.925-6.385-75.544-9.53a5.955,5.955,0,0,0-7.292,5.6l-2.748,79.15a5.963,5.963,0,0,0,2.911,5.339c31.764,18.815,82.673,16.211,82.673,16.211s50.908,2.6,82.674-16.211a5.966,5.966,0,0,0,2.911-5.339Z" transform="translate(-1204.252 -804.924)" fill="#45484a"/>
    <path id="Path_23" data-name="Path 23" d="M1206.612,819.082c18.606-4.643,30.642-25.845,29.891-31.37a64.715,64.715,0,0,0-14.766,10.987A92.965,92.965,0,0,0,1206.612,819.082Z" transform="translate(-1203.49 -787.712)" fill="#669ecb"/>
    <path id="Path_24" data-name="Path 24" d="M1423.771,819.082c-18.607-4.643-30.642-25.845-29.891-31.37a64.72,64.72,0,0,1,14.766,10.987A93,93,0,0,1,1423.771,819.082Z" transform="translate(-1210.535 -787.712)" fill="#669ecb"/>
  </g>
  <g id="Group_8" data-name="Group 8" transform="translate(48.728 580.237)">
    <path id="Path_25" data-name="Path 25" d="M1236.572,1378.436a45.674,45.674,0,0,1-18.534-12.38,18.6,18.6,0,0,0-4.377-4.023,4.928,4.928,0,0,0-3.807-.465c7.321,11.459,18.541,19.437,31.426,21.387,0-.051.016-.1.015-.15C1241.225,1380.32,1238.65,1379.159,1236.572,1378.436Z" transform="translate(-1209.855 -1361.37)" fill="#ef4a29"/>
    <path id="Path_26" data-name="Path 26" d="M1393.751,1378.436a45.67,45.67,0,0,0,18.534-12.38,18.585,18.585,0,0,1,4.377-4.023,4.924,4.924,0,0,1,3.805-.465c-7.32,11.459-18.539,19.437-31.424,21.387,0-.051-.017-.1-.015-.15C1389.1,1380.32,1391.674,1379.159,1393.751,1378.436Z" transform="translate(-1216.597 -1361.37)" fill="#ef4a29"/>
  </g>
  <path id="Path_27" data-name="Path 27" d="M1281.6,778.6h64.1a95.034,95.034,0,0,0,22.473-2.7,49.255,49.255,0,0,0-27.706-8.536h-53.628a49.251,49.251,0,0,0-27.707,8.536A95.035,95.035,0,0,0,1281.6,778.6Z" transform="translate(-1162.981 -758.78)" fill="#45484a"/>
</svg>
